<svg xmlns="http://www.w3.org/2000/svg" xmlns:xlink="http://www.w3.org/1999/xlink" viewBox="0 0 70 218"><defs><path id="A" d="M0 0h70v218H0z"/></defs><clipPath id="B"><use xlink:href="#A"/></clipPath><g clip-path="url(#B)"><path d="M-272.5 146.8c5.2 8.9-5.3 87.8 45.1 87.6s50.6 34 80.9 30c30.4-4 55-29.7 64.7-51.3C-72.1 191.6-1 249.6 23.6 195s-2.2-61.1 8.1-91.7C41.9 72.7 76.8 54.5 67.9 2.4S10.1-35.3 10.1-35.3s53.2-38-1-99c-54.3-61-118.9 23.6-118.9 23.6L-155.6-99s22.4-87.9-44.8-85.1-94.9 69.3-91.8 122.8c3 53.6 19.7 208.1 19.7 208.1" fill="#dcf7f7"/></g></svg>